<svg xmlns="http://www.w3.org/2000/svg"  viewBox="0 0 48 48" width="48px" height="48px" clip-rule="evenodd" baseProfile="basic"><path fill-rule="evenodd" d="M14.007,43.995v2.001h1.999v-2.001	H14.007z" clip-rule="evenodd"/><path fill-rule="evenodd" d="M5.007,25.994v2.001h1.999v-2.001	H5.007z" clip-rule="evenodd"/><path fill-rule="evenodd" d="M4.007,12.994v2.001h1.999v-2.001	H4.007z" clip-rule="evenodd"/><path fill-rule="evenodd" d="M3.007,7.57v2.001h1.999V7.57H3.007z" clip-rule="evenodd"/><path fill-rule="evenodd" d="M33.994,43.995v2.001h-1.999v-2.001	H33.994z" clip-rule="evenodd"/><path fill-rule="evenodd" d="M42.994,25.994v2.001h-1.999v-2.001	H42.994z" clip-rule="evenodd"/><path fill-rule="evenodd" d="M43.994,12.994v2.001h-1.999v-2.001	H43.994z" clip-rule="evenodd"/><path fill-rule="evenodd" d="M44.994,7.57v2.001h-1.999V7.57	H44.994z" clip-rule="evenodd"/><path fill-rule="evenodd" d="M14.19,46.573	c-1.095-1.548-2.084-3.169-2.948-4.879l-1.052-2.311l-0.213,0.855c-0.231,0.923-1.507,1.029-1.887,0.157	c-1.641-3.764-3.083-8.072-3.083-12.4c0-2.912,0.433-5.961,1.308-8.873L4.149,15.51c-0.165-0.275-0.188-0.613-0.061-0.908	l0.411-0.96c-0.932-1.125-1.492-2.571-1.492-4.147c0-3.588,2.913-6.5,6.501-6.5c1.419,0,2.733,0.457,3.803,1.232l0.249-0.125	c0.385-0.193,0.851-0.117,1.155,0.187l1.557,1.559c2.239-1.175,4.816-1.852,7.736-1.852c2.916,0,5.489,0.676,7.727,1.848	l1.555-1.555c0.304-0.304,0.769-0.38,1.155-0.187l0.247,0.124c1.071-0.773,2.385-1.231,3.807-1.231c3.587,0,6.501,2.912,6.501,6.5	c0,1.576-0.563,3.02-1.496,4.145l0.413,0.961c0.127,0.295,0.104,0.633-0.061,0.908l-2.16,3.6c0.877,2.915,1.313,5.969,1.313,8.885	c0,4.328-1.443,8.636-3.084,12.4c-0.38,0.872-1.656,0.765-1.887-0.157l-0.215-0.855l-1.052,2.311	c-0.864,1.709-1.853,3.331-2.947,4.879c-0.617,0.875-2,0.285-1.799-0.765c0.252-1.316,0.511-2.627,0.752-3.935	c-2.712,2.283-5.999,4.123-8.775,4.123c-2.777,0-6.059-1.839-8.765-4.116c0.241,1.305,0.499,2.615,0.752,3.928	C16.19,46.858,14.807,47.447,14.19,46.573z" clip-rule="evenodd"/><path fill="#fff" fill-rule="evenodd" d="M29.002,8.995h-9.995	l-8,9l1,17c2.545,3.608,8.04,8,11.995,8s9.455-4.392,12-8l1-17L29.002,8.995z" clip-rule="evenodd"/><path fill-rule="evenodd" d="M25.458,30.995h-2.901	c-0.536,0-0.675,0.48-0.439,0.765c0.456,0.549,1.193,1.235,1.889,1.235c0.696,0,1.433-0.685,1.889-1.235	C26.133,31.475,25.994,30.995,25.458,30.995z" clip-rule="evenodd"/><path fill-rule="evenodd" d="M26.575,35.995h-5.136	c-0.595,0-0.455,0.537-0.287,0.729c0.568,0.652,1.968,1.271,2.851,1.271c0.883,0,2.291-0.619,2.859-1.271	C27.03,36.533,27.17,35.995,26.575,35.995z" clip-rule="evenodd"/><path fill-rule="evenodd" d="M11.19,35.573	c-0.108-0.152-0.171-0.332-0.181-0.517l-1-17c-0.016-0.265,0.075-0.525,0.251-0.724l8-9c0.189-0.213,0.461-0.336,0.748-0.336h9.995	c0.285,0,0.557,0.123,0.747,0.336l8,9c0.176,0.199,0.267,0.459,0.251,0.724l-1,17c-0.011,0.185-0.073,0.365-0.181,0.517	c-2.605,3.693-8.365,8.423-12.816,8.423C19.543,43.995,13.787,39.254,11.19,35.573z M35.021,34.627l0.959-16.276l-7.427-8.356	h-9.097l-7.427,8.356l0.957,16.276l0.889,1.129c2.713,3.136,7.101,6.239,10.127,6.239c3.017,0,7.407-3.095,10.127-6.236	L35.021,34.627z" clip-rule="evenodd"/><path fill="#fff" fill-rule="evenodd" d="M9.507,1.997	c3.036,0,5.501,2.464,5.501,5.5s-2.465,5.5-5.501,5.5c-3.036,0-5.501-2.464-5.501-5.5S6.471,1.997,9.507,1.997z" clip-rule="evenodd"/><path fill-rule="evenodd" d="M3.006,7.497	c0-3.588,2.913-6.5,6.501-6.5c3.587,0,6.501,2.912,6.501,6.5c0,3.589-2.915,6.5-6.501,6.5C5.919,13.997,3.006,11.086,3.006,7.497z M14.009,7.497c0-2.483-2.017-4.5-4.501-4.5c-2.485,0-4.501,2.017-4.501,4.5c0,2.484,2.016,4.5,4.501,4.5	C11.991,11.997,14.009,9.981,14.009,7.497z" clip-rule="evenodd"/><path fill="#fff" fill-rule="evenodd" d="M8.007,17.995l-3-5l3-7	l6-3l3,3l-3,9L8.007,17.995z" clip-rule="evenodd"/><path fill-rule="evenodd" d="M7.149,18.51l-3-5	c-0.165-0.275-0.188-0.613-0.061-0.908l3-7c0.093-0.217,0.26-0.395,0.472-0.5l6-3c0.385-0.193,0.851-0.117,1.155,0.187l3,3	c0.268,0.268,0.361,0.664,0.241,1.024l-3,9c-0.084,0.251-0.264,0.459-0.501,0.577l-6,3C7.987,19.125,7.418,18.958,7.149,18.51z M8.387,16.687l4.801-2.4l2.673-8.021l-2.053-2.053L8.782,6.726l-2.655,6.193L8.387,16.687z" clip-rule="evenodd"/><path fill="#fff" fill-rule="evenodd" d="M38.495,1.997	c-3.036,0-5.501,2.464-5.501,5.5s2.465,5.5,5.501,5.5c3.036,0,5.501-2.464,5.501-5.5S41.531,1.997,38.495,1.997z" clip-rule="evenodd"/><path fill-rule="evenodd" d="M31.994,7.497	c0-3.588,2.913-6.5,6.501-6.5c3.587,0,6.501,2.912,6.501,6.5c0,3.589-2.915,6.5-6.501,6.5C34.907,13.997,31.994,11.086,31.994,7.497	z M42.997,7.497c0-2.483-2.017-4.5-4.501-4.5c-2.485,0-4.501,2.017-4.501,4.5c0,2.484,2.016,4.5,4.501,4.5	C40.979,11.997,42.997,9.981,42.997,7.497z" clip-rule="evenodd"/><path fill="#fff" fill-rule="evenodd" d="M39.997,17.995l3-5l-3-7	l-6-3l-3,3l3,9L39.997,17.995z" clip-rule="evenodd"/><path fill-rule="evenodd" d="M39.549,18.89l-6-3	c-0.237-0.119-0.417-0.327-0.501-0.577l-3-9c-0.12-0.36-0.027-0.756,0.241-1.024l3-3c0.304-0.304,0.769-0.38,1.155-0.187l6,3	c0.212,0.105,0.379,0.283,0.472,0.5l3,7c0.127,0.295,0.104,0.633-0.061,0.908l-3,5C40.585,18.958,40.015,19.125,39.549,18.89z M39.615,16.687l2.26-3.768l-2.655-6.193l-5.027-2.513l-2.053,2.053l2.673,8.021L39.615,16.687z" clip-rule="evenodd"/><path fill-rule="evenodd" d="M14.006,25.495v-1.163	c0-0.737,0.599-1.336,1.336-1.336h2.329c0.737,0,1.336,0.599,1.336,1.336l0.001,1.163c0,1.38-1.121,2.501-2.501,2.501	C15.127,27.997,14.006,26.875,14.006,25.495z" clip-rule="evenodd"/><path fill-rule="evenodd" d="M34.001,25.495v-1.163	c0-0.737-0.599-1.336-1.336-1.336h-2.329c-0.737,0-1.336,0.599-1.336,1.336l-0.001,1.163c0,1.38,1.121,2.501,2.501,2.501	C32.879,27.997,34.001,26.875,34.001,25.495z" clip-rule="evenodd"/><path fill="#fff" fill-rule="evenodd" d="M10.007,33.995l-1,4	c-1.623-3.723-3-7.879-3-12c0-10.845,6.077-23,18-23s18,12.155,18,23c0,4.121-1.377,8.277-3,12l-1-4c-1.147,3.68-2.865,6.979-5,10	c0.951-4.947,2-9.957,2-15c0-5.497-3.247-11.565-8.001-13.427l0.001,10.427c-1.111-1.16-2.119-2.525-3.001-4.14l0.001,2.14	c-1.835-1.917-3.389-4.395-4.561-7.635c-3.889,2.443-6.439,7.764-6.439,12.635c0,5.043,1.049,10.053,2,15	C12.873,40.974,11.154,37.675,10.007,33.995z" clip-rule="evenodd"/><path fill-rule="evenodd" d="M14.19,44.573	c-1.095-1.548-2.084-3.169-2.948-4.879l-1.052-2.311l-0.213,0.855c-0.231,0.923-1.507,1.029-1.887,0.157	c-1.641-3.764-3.083-8.072-3.083-12.4c0-11.019,6.209-24,19-24c12.789,0,19,12.981,19,24c0,4.328-1.443,8.636-3.084,12.4	c-0.38,0.872-1.656,0.765-1.887-0.157l-0.215-0.855l-1.052,2.311c-0.864,1.709-1.853,3.331-2.947,4.879	c-0.617,0.875-2,0.285-1.799-0.765c0.957-4.98,1.983-9.885,1.983-14.812c0-4.561-2.376-9.428-5.827-11.692l-0.176-0.092l0.001,8.784	c0.001,0.899-1.1,1.341-1.721,0.692l-1.645-1.968l-0.261,0.203c-0.352,0.143-0.783,0.091-1.093-0.235	c-1.456-1.521-2.735-3.364-3.795-5.607l-0.476-1.149l-0.313,0.236c-2.839,2.505-4.693,6.812-4.693,10.828	c0,4.927,1.024,9.832,1.981,14.812C16.19,44.858,14.807,45.447,14.19,44.573z M12.007,28.995c0-5.149,2.675-10.823,6.907-13.481	c0.539-0.339,1.255-0.092,1.472,0.507c0.564,1.563,1.217,2.932,1.947,4.137l0.816,1.201l0.08-0.139	c0.412-0.492,1.283-0.521,1.655,0.156l1.123,1.78V15.57c-0.001-0.704,0.709-1.188,1.364-0.932c5.245,2.053,8.637,8.577,8.637,14.357	c0,2.58-0.269,5.149-0.656,7.688l-0.359,2.091l1.121-2.465c0.345-0.848,0.659-1.717,0.937-2.611c0.3-0.96,1.681-0.92,1.925,0.056	l0.252,1.009l0.921-2.879c0.528-1.951,0.857-3.931,0.857-5.889c0-10.671-5.945-22-17-22c-11.056,0-17,11.329-17,22	c0,1.959,0.328,3.939,0.856,5.889l0.921,2.877l0.252-1.008c0.244-0.976,1.625-1.016,1.925-0.056	c0.277,0.893,0.591,1.763,0.936,2.611l1.123,2.467l-0.359-2.092C12.275,34.145,12.007,31.575,12.007,28.995z" clip-rule="evenodd"/></svg>